<svg width="24" height="24" viewBox="0 0 24 24" xmlns="http://www.w3.org/2000/svg">
<path fill-rule="evenodd" clip-rule="evenodd" d="M7 6C7 3.23858 9.23858 1 12 1C14.7614 1 17 3.23858 17 6C17 8.76142 14.7614 11 12 11C9.23858 11 7 8.76142 7 6ZM12 3C10.3431 3 9 4.34315 9 6C9 7.65685 10.3431 9 12 9C13.6569 9 15 7.65685 15 6C15 4.34315 13.6569 3 12 3Z" />
<path fill-rule="evenodd" clip-rule="evenodd" d="M13 18C13 16.6193 14.1193 15.5 15.5 15.5C16.8807 15.5 18 16.6193 18 18C18 19.3807 16.8807 20.5 15.5 20.5C14.1193 20.5 13 19.3807 13 18ZM15.5 17.5C15.2239 17.5 15 17.7239 15 18C15 18.2761 15.2239 18.5 15.5 18.5C15.7761 18.5 16 18.2761 16 18C16 17.7239 15.7761 17.5 15.5 17.5Z" />
<path fill-rule="evenodd" clip-rule="evenodd" d="M10 13.5V16.5H8V13.5H10Z" />
<path fill-rule="evenodd" clip-rule="evenodd" d="M16.5 13.5V16.5H14.5V13.5H16.5Z" />
<path fill-rule="evenodd" clip-rule="evenodd" d="M6 18.5C6 16.8431 7.34315 15.5 9 15.5C10.6569 15.5 12 16.8431 12 18.5V19.5H10V18.5C10 17.9477 9.55228 17.5 9 17.5C8.44772 17.5 8 17.9477 8 18.5V19.5H6V18.5Z" />
<path fill-rule="evenodd" clip-rule="evenodd" d="M4.06189 21H19.9381C19.446 17.0537 16.0796 14 12 14C7.92038 14 4.55399 17.0537 4.06189 21ZM2 22C2 16.4772 6.47715 12 12 12C17.5228 12 22 16.4772 22 22C22 22.5523 21.5523 23 21 23H3C2.44772 23 2 22.5523 2 22Z" />
</svg>
