<svg width="24" height="24" viewBox="0 0 24 24" xmlns="http://www.w3.org/2000/svg">
<path fill-rule="evenodd" clip-rule="evenodd" d="M10.7535 14.933C10.718 14.8798 10.6473 14.8635 10.5921 14.8957L6 17.5744V20.5H15.6379L20.1296 16.757C20.3385 16.5829 20.3528 16.267 20.1605 16.0747C20.0018 15.916 19.7521 15.8942 19.5683 16.0229L15.5735 18.8192C15.4054 18.9369 15.2052 19 15 19H10C9.6312 19 9.29234 18.797 9.11833 18.4719C8.94431 18.1467 8.96338 17.7522 9.16795 17.4453L10.7535 15.067C10.7805 15.0264 10.7805 14.9736 10.7535 14.933ZM9.58435 13.1681C10.5535 12.6028 11.7952 12.8901 12.4176 13.8236C12.8925 14.536 12.8925 15.464 12.4176 16.1764L11.8685 17H14.6848L18.4214 14.3844C19.4002 13.6992 20.7298 13.8156 21.5747 14.6605C22.5986 15.6844 22.5223 17.3665 21.4099 18.2935L16.6402 22.2682C16.4605 22.418 16.2339 22.5 16 22.5H5C4.44772 22.5 4 22.0523 4 21.5V17C4 16.6443 4.18891 16.3154 4.49613 16.1362L9.58435 13.1681Z" />
<path fill-rule="evenodd" clip-rule="evenodd" d="M1 15.5C1 14.9477 1.44772 14.5 2 14.5H5C5.55228 14.5 6 14.9477 6 15.5V22C6 22.5523 5.55228 23 5 23H2C1.44772 23 1 22.5523 1 22V15.5ZM3 16.5V21H4V16.5H3Z" />
<path fill-rule="evenodd" clip-rule="evenodd" d="M9.5 2C9.5 1.44772 9.94772 1 10.5 1H13.5C14.0523 1 14.5 1.44772 14.5 2V4H16.5C17.0523 4 17.5 4.44772 17.5 5V8C17.5 8.55228 17.0523 9 16.5 9H14.5V11C14.5 11.5523 14.0523 12 13.5 12H10.5C9.94772 12 9.5 11.5523 9.5 11V9H7.5C6.94772 9 6.5 8.55228 6.5 8V5C6.5 4.44772 6.94772 4 7.5 4H9.5V2ZM11.5 3V5C11.5 5.55228 11.0523 6 10.5 6H8.5V7H10.5C11.0523 7 11.5 7.44772 11.5 8V10H12.5V8C12.5 7.44772 12.9477 7 13.5 7H15.5V6H13.5C12.9477 6 12.5 5.55228 12.5 5V3H11.5Z" />
</svg>
