<svg width="24" height="24" viewBox="0 0 24 24" xmlns="http://www.w3.org/2000/svg">
<path fill-rule="evenodd" clip-rule="evenodd" d="M6 3C6 2.44772 6.44772 2 7 2H17C17.5523 2 18 2.44772 18 3V20C18 20.5523 17.5523 21 17 21H7C6.44772 21 6 20.5523 6 20V3ZM8 4V19H16V4H8Z" />
<path fill-rule="evenodd" clip-rule="evenodd" d="M9 13C9 12.4477 9.44772 12 10 12H14C14.5523 12 15 12.4477 15 13V20C15 20.5523 14.5523 21 14 21H10C9.44772 21 9 20.5523 9 20V13ZM11 14V19H13V14H11Z" />
<path fill-rule="evenodd" clip-rule="evenodd" d="M16 8C16 7.44772 16.4477 7 17 7H20.5C21.0523 7 21.5 7.44772 21.5 8V20C21.5 20.5523 21.0523 21 20.5 21H17C16.4477 21 16 20.5523 16 20V8ZM18 9V19H19.5V9H18Z" />
<path fill-rule="evenodd" clip-rule="evenodd" d="M8 8C8 7.44772 7.55228 7 7 7H3.5C2.94772 7 2.5 7.44772 2.5 8V20C2.5 20.5523 2.94772 21 3.5 21H7C7.55228 21 8 20.5523 8 20V8ZM6 9V19H4.5V9H6Z" />
<path fill-rule="evenodd" clip-rule="evenodd" d="M2 19H22V21H2V19Z" />
<path fill-rule="evenodd" clip-rule="evenodd" d="M14 8.5H10V6.5H14V8.5Z" />
<path fill-rule="evenodd" clip-rule="evenodd" d="M13 5.5V9.5H11V5.5H13Z" />
</svg>
