<svg width="24" height="24" viewBox="0 0 24 24" xmlns="http://www.w3.org/2000/svg">
<path fill-rule="evenodd" clip-rule="evenodd" d="M10.8906 1.53774C11.5624 1.08988 12.4376 1.08988 13.1094 1.53774L15.0718 2.84604L17.1056 1.82917C18.4354 1.16427 20 2.13126 20 3.61803V20.382C20 21.8687 18.4354 22.8357 17.1056 22.1708L15.0718 21.1539L13.1094 22.4622C12.4376 22.9101 11.5624 22.9101 10.8906 22.4622L8.92816 21.1539L6.89443 22.1708C5.56462 22.8357 4 21.8687 4 20.382V3.61803C4 2.13127 5.56462 1.16427 6.89443 1.82917L8.92816 2.84604L10.8906 1.53774ZM12 3.20184L10.0376 4.51014C9.44038 4.90825 8.67567 4.95586 8.03373 4.63489L6 3.61803V20.382L8.03373 19.3651C8.67567 19.0441 9.44038 19.0917 10.0376 19.4898L12 20.7981L13.9624 19.4898C14.5596 19.0917 15.3243 19.0441 15.9663 19.3651L18 20.382L18 3.61803L15.9663 4.63489C15.3243 4.95586 14.5596 4.90825 13.9624 4.51014L12 3.20184Z" />
<path fill-rule="evenodd" clip-rule="evenodd" d="M9 9.8541C9 8.27782 10.2778 7 11.8541 7H12C13.6569 7 15 8.34315 15 10V10.5H13V10C13 9.44772 12.5523 9 12 9H11.8541C11.3824 9 11 9.38239 11 9.8541C11 10.1776 11.1828 10.4734 11.4721 10.618L13.4223 11.5931C14.3892 12.0766 15 13.0648 15 14.1459C15 15.7222 13.7222 17 12.1459 17H12C10.3431 17 9 15.6569 9 14V13.5H11V14C11 14.5523 11.4477 15 12 15H12.1459C12.6176 15 13 14.6176 13 14.1459C13 13.8224 12.8172 13.5266 12.5279 13.382L10.5777 12.4069C9.61078 11.9234 9 10.9352 9 9.8541Z" />
<path fill-rule="evenodd" clip-rule="evenodd" d="M13 6V8H11V6H13Z" />
<path fill-rule="evenodd" clip-rule="evenodd" d="M13 16V18H11V16H13Z" />
</svg>
