<svg width="24" height="24" viewBox="0 0 24 24" xmlns="http://www.w3.org/2000/svg">
<path fill-rule="evenodd" clip-rule="evenodd" d="M1 7.65219C1 5.05885 3.01472 2.95654 5.5 2.95654C7.98528 2.95654 10 5.05886 10 7.6522V16.3478C10 18.9412 7.98528 21.0435 5.5 21.0435C3.01472 21.0435 1 18.9412 1 16.3478V7.65219ZM5.5 5.0435C4.11929 5.0435 3 6.21145 3 7.65219V16.3478C3 17.7886 4.11929 18.9565 5.5 18.9565C6.88071 18.9565 8 17.7886 8 16.3478V7.6522C8 6.21145 6.88071 5.0435 5.5 5.0435Z" />
<path fill-rule="evenodd" clip-rule="evenodd" d="M17 8.0435C14.7503 8.0435 13 9.8563 13 12C13 14.1437 14.7503 15.9565 17 15.9565C19.2497 15.9565 21 14.1437 21 12C21 9.8563 19.2497 8.0435 17 8.0435ZM11 12C11 8.62089 13.7268 5.95654 17 5.95654C20.2732 5.95654 23 8.62089 23 12C23 15.3792 20.2732 18.0435 17 18.0435C13.7268 18.0435 11 15.3792 11 12Z" />
<path fill-rule="evenodd" clip-rule="evenodd" d="M17 5.95654C17.5523 5.95654 18 6.42372 18 7.00002V17C18 17.5763 17.5523 18.0435 17 18.0435C16.4477 18.0435 16 17.5763 16 17V7.00002C16 6.42372 16.4477 5.95654 17 5.95654Z" />
<path fill-rule="evenodd" clip-rule="evenodd" d="M1 12C1 11.4237 1.44772 10.9565 2 10.9565H9C9.55228 10.9565 10 11.4237 10 12C10 12.5763 9.55228 13.0435 9 13.0435H2C1.44772 13.0435 1 12.5763 1 12Z" />
</svg>
