<svg width="24" height="24" viewBox="0 0 24 24" xmlns="http://www.w3.org/2000/svg">
<path fill-rule="evenodd" clip-rule="evenodd" d="M4 5.5C4 4.94772 4.44772 4.5 5 4.5H8.5V6.5H6V21H18V6.5H15.5V4.5H19C19.5523 4.5 20 4.94772 20 5.5V22C20 22.5523 19.5523 23 19 23H5C4.44772 23 4 22.5523 4 22V5.5Z" />
<path fill-rule="evenodd" clip-rule="evenodd" d="M12 3C11.7239 3 11.5 3.22386 11.5 3.5V4C11.5 4.55228 11.0523 5 10.5 5H9.5V6H14.5V5H13.5C12.9477 5 12.5 4.55228 12.5 4V3.5C12.5 3.22386 12.2761 3 12 3ZM14.45 3C14.2184 1.85888 13.2095 1 12 1C10.7905 1 9.78164 1.85888 9.55001 3H8.5C7.94772 3 7.5 3.44772 7.5 4V7C7.5 7.55228 7.94772 8 8.5 8H15.5C16.0523 8 16.5 7.55228 16.5 7V4C16.5 3.44772 16.0523 3 15.5 3H14.45Z" />
<path fill-rule="evenodd" clip-rule="evenodd" d="M9.5 10C9.5 9.44772 9.94772 9 10.5 9H13.5C14.0523 9 14.5 9.44772 14.5 10V12H16.5C17.0523 12 17.5 12.4477 17.5 13V16C17.5 16.5523 17.0523 17 16.5 17H14.5V19C14.5 19.5523 14.0523 20 13.5 20H10.5C9.94772 20 9.5 19.5523 9.5 19V17H7.5C6.94772 17 6.5 16.5523 6.5 16V13C6.5 12.4477 6.94772 12 7.5 12H9.5V10ZM11.5 11V13C11.5 13.5523 11.0523 14 10.5 14H8.5V15H10.5C11.0523 15 11.5 15.4477 11.5 16V18H12.5V16C12.5 15.4477 12.9477 15 13.5 15H15.5V14H13.5C12.9477 14 12.5 13.5523 12.5 13V11H11.5Z" />
</svg>
