<svg width="24" height="24" viewBox="0 0 24 24" xmlns="http://www.w3.org/2000/svg">
<path fill-rule="evenodd" clip-rule="evenodd" d="M22 19H2V17H22V19Z" />
<path fill-rule="evenodd" clip-rule="evenodd" d="M8.75039 7C8.47993 7 8.21676 7.08772 8.00039 7.25L4.60039 9.8L3.40039 8.2L6.80039 5.65C7.36295 5.22808 8.04719 5 8.75039 5C10.5082 5 11.9401 6.39553 11.9985 8.13911L14.3243 6.00506C14.6483 5.70777 15.1285 5.65701 15.5075 5.87999C15.8865 6.10297 16.0753 6.54736 15.9728 6.97497L14.9115 11.4028L17.1493 10.5637C17.4792 10.4399 17.8499 10.499 18.1251 10.7191L20.6251 12.7191L19.3757 14.2809L17.3194 12.6359L13.8515 13.9363C13.5052 14.0662 13.1155 13.9943 12.8383 13.7494C12.5611 13.5045 12.4417 13.1266 12.5279 12.7669L13.2651 9.69128L12.0004 10.8518V13.599C12.0004 14.925 10.9254 16 9.59941 16C7.41028 16 6.36314 13.31 7.97615 11.8299L10.0004 9.97255V8.25C10.0004 7.55964 9.44075 7 8.75039 7ZM10.0004 12.6869L9.32832 13.3036C9.05894 13.5508 9.23382 14 9.59941 14C9.82087 14 10.0004 13.8205 10.0004 13.599V12.6869Z" />
</svg>
