<svg width="24" height="24" viewBox="0 0 24 24" xmlns="http://www.w3.org/2000/svg">
<path fill-rule="evenodd" clip-rule="evenodd" d="M2 17V14H4V17C4 17.5523 4.44772 18 5 18H19C19.5523 18 20 17.5523 20 17V14H22V17C22 18.6569 20.6569 20 19 20H5C3.34315 20 2 18.6569 2 17Z" />
<path fill-rule="evenodd" clip-rule="evenodd" d="M13 6V17H11V6H13Z" />
<path fill-rule="evenodd" clip-rule="evenodd" d="M11.9996 5C12.3034 5 12.5907 5.13809 12.7805 5.3753L16.7805 10.3753L15.2188 11.6247L11.9996 7.60078L8.78049 11.6247L7.21875 10.3753L11.2188 5.3753C11.4085 5.13809 11.6958 5 11.9996 5Z" />
</svg>
