<svg width="24" height="24" viewBox="0 0 24 24" xmlns="http://www.w3.org/2000/svg">
<path fill-rule="evenodd" clip-rule="evenodd" d="M12 3C9.51472 3 7.5 5.01472 7.5 7.5C7.5 9.98528 9.51472 12 12 12C14.4853 12 16.5 9.98528 16.5 7.5C16.5 5.01472 14.4853 3 12 3ZM5.5 7.5C5.5 3.91015 8.41015 1 12 1C15.5899 1 18.5 3.91015 18.5 7.5C18.5 11.0899 15.5899 14 12 14C8.41015 14 5.5 11.0899 5.5 7.5Z" />
<path fill-rule="evenodd" clip-rule="evenodd" d="M12.0002 14C7.63525 14 4.09155 16.7424 3.21342 20.2615C3.16899 20.4395 3.21347 20.5945 3.34078 20.732C3.48015 20.8824 3.71745 21 4.00023 21H20.0002C20.283 21 20.5203 20.8824 20.6597 20.732C20.787 20.5945 20.8315 20.4395 20.787 20.2615C19.9089 16.7424 16.3652 14 12.0002 14ZM1.27292 19.7772C2.39991 15.2609 6.83173 12 12.0002 12C17.1687 12 21.6005 15.2609 22.7275 19.7772C23.195 21.6507 21.5673 23 20.0002 23H4.00023C2.43316 23 0.80543 21.6507 1.27292 19.7772Z" />
</svg>
