<svg width="24" height="24" viewBox="0 0 24 24" xmlns="http://www.w3.org/2000/svg">
<path fill-rule="evenodd" clip-rule="evenodd" d="M12 3.75C10.067 3.75 8.5 5.317 8.5 7.25C8.5 9.183 10.067 10.75 12 10.75C13.933 10.75 15.5 9.183 15.5 7.25C15.5 5.317 13.933 3.75 12 3.75ZM6.5 7.25C6.5 4.21243 8.96243 1.75 12 1.75C15.0376 1.75 17.5 4.21243 17.5 7.25C17.5 10.2876 15.0376 12.75 12 12.75C8.96243 12.75 6.5 10.2876 6.5 7.25Z" />
<path fill-rule="evenodd" clip-rule="evenodd" d="M3 17.75C3 15.2647 5.01472 13.25 7.5 13.25H16.5C18.9853 13.25 21 15.2647 21 17.75C21 20.2353 18.9853 22.25 16.5 22.25H7.5C5.01472 22.25 3 20.2353 3 17.75ZM7.5 15.25C6.11929 15.25 5 16.3693 5 17.75C5 19.1307 6.11929 20.25 7.5 20.25H16.5C17.8807 20.25 19 19.1307 19 17.75C19 16.3693 17.8807 15.25 16.5 15.25H7.5Z" />
</svg>
